ISO-10303-21;
HEADER;
FILE_DESCRIPTION(('FreeCAD Model'),'2;1');
FILE_NAME('Open CASCADE Shape Model','2026-09-28T16:07:15',('FreeCAD'),(
    'FreeCAD'),'Open CASCADE STEP processor 7.9','FreeCAD','Unknown');
FILE_SCHEMA(('AUTOMOTIVE_DESIGN { 1 0 10303 214 1 1 1 1 }'));
ENDSEC;
DATA;
#1 = APPLICATION_PROTOCOL_DEFINITION('international standard',
  'automotive_design',2000,#2);
#2 = APPLICATION_CONTEXT(
  'core data for automotive mechanical design processes');
#3 = SHAPE_DEFINITION_REPRESENTATION(#4,#10);
#4 = PRODUCT_DEFINITION_SHAPE('','',#5);
#5 = PRODUCT_DEFINITION('design','',#6,#9);
#6 = PRODUCT_DEFINITION_FORMATION('','',#7);
#7 = PRODUCT('Open CASCADE STEP translator 7.9 9',
  'Open CASCADE STEP translator 7.9 9','',(#8));
#8 = PRODUCT_CONTEXT('',#2,'mechanical');
#9 = PRODUCT_DEFINITION_CONTEXT('part definition',#2,'design');
#10 = ADVANCED_BREP_SHAPE_REPRESENTATION('',(#11,#15),#264);
#11 = AXIS2_PLACEMENT_3D('',#12,#13,#14);
#12 = CARTESIAN_POINT('',(0.,0.,0.));
#13 = DIRECTION('',(0.,0.,1.));
#14 = DIRECTION('',(1.,0.,-0.));
#15 = MANIFOLD_SOLID_BREP('',#16);
#16 = CLOSED_SHELL('',(#17,#68,#113,#158,#203,#238,#251));
#17 = ADVANCED_FACE('',(#18),#51,.T.);
#18 = FACE_BOUND('',#19,.T.);
#19 = EDGE_LOOP('',(#20,#31,#38,#46));
#20 = ORIENTED_EDGE('',*,*,#21,.T.);
#21 = EDGE_CURVE('',#22,#24,#26,.T.);
#22 = VERTEX_POINT('',#23);
#23 = CARTESIAN_POINT('',(10.,0.,0.));
#24 = VERTEX_POINT('',#25);
#25 = CARTESIAN_POINT('',(7.071067811865,7.071067811865,0.));
#26 = CIRCLE('',#27,10.);
#27 = AXIS2_PLACEMENT_3D('',#28,#29,#30);
#28 = CARTESIAN_POINT('',(0.,0.,0.));
#29 = DIRECTION('',(0.,0.,1.));
#30 = DIRECTION('',(1.,0.,-0.));
#31 = ORIENTED_EDGE('',*,*,#32,.T.);
#32 = EDGE_CURVE('',#24,#33,#35,.T.);
#33 = VERTEX_POINT('',#34);
#34 = CARTESIAN_POINT('',(6.,6.,20.));
#35 = B_SPLINE_CURVE_WITH_KNOTS('',1,(#36,#37),.UNSPECIFIED.,.F.,.F.,(2,
    2),(0.,1.),.PIECEWISE_BEZIER_KNOTS.);
#36 = CARTESIAN_POINT('',(7.071067811865,7.071067811865,0.));
#37 = CARTESIAN_POINT('',(6.,6.,20.));
#38 = ORIENTED_EDGE('',*,*,#39,.F.);
#39 = EDGE_CURVE('',#40,#33,#42,.T.);
#40 = VERTEX_POINT('',#41);
#41 = CARTESIAN_POINT('',(6.,0.,20.));
#42 = LINE('',#43,#44);
#43 = CARTESIAN_POINT('',(6.,-6.,20.));
#44 = VECTOR('',#45,1.);
#45 = DIRECTION('',(0.,1.,0.));
#46 = ORIENTED_EDGE('',*,*,#47,.F.);
#47 = EDGE_CURVE('',#22,#40,#48,.T.);
#48 = B_SPLINE_CURVE_WITH_KNOTS('',1,(#49,#50),.UNSPECIFIED.,.F.,.F.,(2,
    2),(0.,1.),.PIECEWISE_BEZIER_KNOTS.);
#49 = CARTESIAN_POINT('',(10.,-4.440892098501E-16,0.));
#50 = CARTESIAN_POINT('',(6.,0.,20.));
#51 = B_SPLINE_SURFACE_WITH_KNOTS('',7,1,(
    (#52,#53)
    ,(#54,#55)
    ,(#56,#57)
    ,(#58,#59)
    ,(#60,#61)
    ,(#62,#63)
    ,(#64,#65)
    ,(#66,#67)),.UNSPECIFIED.,.F.,.F.,.F.,(8,8),(2,2),(6.,12.),(0.,1.),
  .PIECEWISE_BEZIER_KNOTS.);
#52 = CARTESIAN_POINT('',(10.,-4.440892098501E-16,0.));
#53 = CARTESIAN_POINT('',(6.,0.,20.));
#54 = CARTESIAN_POINT('',(10.,1.121997376282,0.));
#55 = CARTESIAN_POINT('',(6.,0.857142857143,20.));
#56 = CARTESIAN_POINT('',(9.853130825641,2.243994729558,0.));
#57 = CARTESIAN_POINT('',(6.,1.714285714286,20.));
#58 = CARTESIAN_POINT('',(9.559392934142,3.342922080194,0.));
#59 = CARTESIAN_POINT('',(6.,2.571428571429,20.));
#60 = CARTESIAN_POINT('',(9.123314439642,4.395708695875,0.));
#61 = CARTESIAN_POINT('',(6.,3.428571428571,20.));
#62 = CARTESIAN_POINT('',(8.553959512946,5.380471732511,0.));
#63 = CARTESIAN_POINT('',(6.,4.285714285714,20.));
#64 = CARTESIAN_POINT('',(7.864439765108,6.277695858623,0.));
#65 = CARTESIAN_POINT('',(6.,5.142857142857,20.));
#66 = CARTESIAN_POINT('',(7.071067811865,7.071067811865,0.));
#67 = CARTESIAN_POINT('',(6.,6.,20.));
#68 = ADVANCED_FACE('',(#69),#94,.T.);
#69 = FACE_BOUND('',#70,.T.);
#70 = EDGE_LOOP('',(#71,#80,#87,#93));
#71 = ORIENTED_EDGE('',*,*,#72,.T.);
#72 = EDGE_CURVE('',#24,#73,#75,.T.);
#73 = VERTEX_POINT('',#74);
#74 = CARTESIAN_POINT('',(-7.071067811865,7.071067811865,0.));
#75 = CIRCLE('',#76,10.);
#76 = AXIS2_PLACEMENT_3D('',#77,#78,#79);
#77 = CARTESIAN_POINT('',(0.,0.,0.));
#78 = DIRECTION('',(0.,0.,1.));
#79 = DIRECTION('',(1.,0.,-0.));
#80 = ORIENTED_EDGE('',*,*,#81,.T.);
#81 = EDGE_CURVE('',#73,#82,#84,.T.);
#82 = VERTEX_POINT('',#83);
#83 = CARTESIAN_POINT('',(-6.,6.,20.));
#84 = B_SPLINE_CURVE_WITH_KNOTS('',1,(#85,#86),.UNSPECIFIED.,.F.,.F.,(2,
    2),(0.,1.),.PIECEWISE_BEZIER_KNOTS.);
#85 = CARTESIAN_POINT('',(-7.071067811865,7.071067811865,0.));
#86 = CARTESIAN_POINT('',(-6.,6.,20.));
#87 = ORIENTED_EDGE('',*,*,#88,.F.);
#88 = EDGE_CURVE('',#33,#82,#89,.T.);
#89 = LINE('',#90,#91);
#90 = CARTESIAN_POINT('',(6.,6.,20.));
#91 = VECTOR('',#92,1.);
#92 = DIRECTION('',(-1.,0.,0.));
#93 = ORIENTED_EDGE('',*,*,#32,.F.);
#94 = B_SPLINE_SURFACE_WITH_KNOTS('',8,1,(
    (#95,#96)
    ,(#97,#98)
    ,(#99,#100)
    ,(#101,#102)
    ,(#103,#104)
    ,(#105,#106)
    ,(#107,#108)
    ,(#109,#110)
    ,(#111,#112
  )),.UNSPECIFIED.,.F.,.F.,.F.,(9,9),(2,2),(0.,12.),(0.,1.),
  .PIECEWISE_BEZIER_KNOTS.);
#95 = CARTESIAN_POINT('',(7.071067811865,7.071067811865,0.));
#96 = CARTESIAN_POINT('',(6.,6.,20.));
#97 = CARTESIAN_POINT('',(5.682666893691,8.45946873004,0.));
#98 = CARTESIAN_POINT('',(4.5,6.,20.));
#99 = CARTESIAN_POINT('',(3.982708711897,9.536313258657,0.));
#100 = CARTESIAN_POINT('',(3.,6.,20.));
#101 = CARTESIAN_POINT('',(2.052765149906,10.220035634371,0.));
#102 = CARTESIAN_POINT('',(1.5,6.,20.));
#103 = CARTESIAN_POINT('',(8.881784197001E-16,10.45469758527,0.));
#104 = CARTESIAN_POINT('',(-8.326672684689E-17,6.,20.));
#105 = CARTESIAN_POINT('',(-2.052765149906,10.220035634371,0.));
#106 = CARTESIAN_POINT('',(-1.5,6.,20.));
#107 = CARTESIAN_POINT('',(-3.982708711897,9.536313258656,0.));
#108 = CARTESIAN_POINT('',(-3.,6.,20.));
#109 = CARTESIAN_POINT('',(-5.682666893691,8.45946873004,0.));
#110 = CARTESIAN_POINT('',(-4.5,6.,20.));
#111 = CARTESIAN_POINT('',(-7.071067811865,7.071067811865,0.));
#112 = CARTESIAN_POINT('',(-6.,6.,20.));
#113 = ADVANCED_FACE('',(#114),#139,.T.);
#114 = FACE_BOUND('',#115,.T.);
#115 = EDGE_LOOP('',(#116,#125,#132,#138));
#116 = ORIENTED_EDGE('',*,*,#117,.T.);
#117 = EDGE_CURVE('',#73,#118,#120,.T.);
#118 = VERTEX_POINT('',#119);
#119 = CARTESIAN_POINT('',(-7.071067811865,-7.071067811865,0.));
#120 = CIRCLE('',#121,10.);
#121 = AXIS2_PLACEMENT_3D('',#122,#123,#124);
#122 = CARTESIAN_POINT('',(0.,0.,0.));
#123 = DIRECTION('',(0.,0.,1.));
#124 = DIRECTION('',(1.,0.,-0.));
#125 = ORIENTED_EDGE('',*,*,#126,.T.);
#126 = EDGE_CURVE('',#118,#127,#129,.T.);
#127 = VERTEX_POINT('',#128);
#128 = CARTESIAN_POINT('',(-6.,-6.,20.));
#129 = B_SPLINE_CURVE_WITH_KNOTS('',1,(#130,#131),.UNSPECIFIED.,.F.,.F.,
  (2,2),(0.,1.),.PIECEWISE_BEZIER_KNOTS.);
#130 = CARTESIAN_POINT('',(-7.071067811865,-7.071067811865,0.));
#131 = CARTESIAN_POINT('',(-6.,-6.,20.));
#132 = ORIENTED_EDGE('',*,*,#133,.F.);
#133 = EDGE_CURVE('',#82,#127,#134,.T.);
#134 = LINE('',#135,#136);
#135 = CARTESIAN_POINT('',(-6.,6.,20.));
#136 = VECTOR('',#137,1.);
#137 = DIRECTION('',(0.,-1.,0.));
#138 = ORIENTED_EDGE('',*,*,#81,.F.);
#139 = B_SPLINE_SURFACE_WITH_KNOTS('',8,1,(
    (#140,#141)
    ,(#142,#143)
    ,(#144,#145)
    ,(#146,#147)
    ,(#148,#149)
    ,(#150,#151)
    ,(#152,#153)
    ,(#154,#155)
    ,(#156,#157
  )),.UNSPECIFIED.,.F.,.F.,.F.,(9,9),(2,2),(0.,12.),(0.,1.),
  .PIECEWISE_BEZIER_KNOTS.);
#140 = CARTESIAN_POINT('',(-7.071067811865,7.071067811865,0.));
#141 = CARTESIAN_POINT('',(-6.,6.,20.));
#142 = CARTESIAN_POINT('',(-8.45946873004,5.682666893691,0.));
#143 = CARTESIAN_POINT('',(-6.,4.5,20.));
#144 = CARTESIAN_POINT('',(-9.536313258656,3.982708711897,0.));
#145 = CARTESIAN_POINT('',(-6.,3.,20.));
#146 = CARTESIAN_POINT('',(-10.22003563437,2.052765149906,0.));
#147 = CARTESIAN_POINT('',(-6.,1.5,20.));
#148 = CARTESIAN_POINT('',(-10.45469758526,-2.118305530985E-13,0.));
#149 = CARTESIAN_POINT('',(-6.,-8.326672684689E-17,20.));
#150 = CARTESIAN_POINT('',(-10.22003563437,-2.052765149906,0.));
#151 = CARTESIAN_POINT('',(-6.,-1.5,20.));
#152 = CARTESIAN_POINT('',(-9.536313258656,-3.982708711897,0.));
#153 = CARTESIAN_POINT('',(-6.,-3.,20.));
#154 = CARTESIAN_POINT('',(-8.45946873004,-5.682666893691,0.));
#155 = CARTESIAN_POINT('',(-6.,-4.5,20.));
#156 = CARTESIAN_POINT('',(-7.071067811865,-7.071067811865,0.));
#157 = CARTESIAN_POINT('',(-6.,-6.,20.));
#158 = ADVANCED_FACE('',(#159),#184,.T.);
#159 = FACE_BOUND('',#160,.T.);
#160 = EDGE_LOOP('',(#161,#170,#177,#183));
#161 = ORIENTED_EDGE('',*,*,#162,.T.);
#162 = EDGE_CURVE('',#118,#163,#165,.T.);
#163 = VERTEX_POINT('',#164);
#164 = CARTESIAN_POINT('',(7.071067811865,-7.071067811865,0.));
#165 = CIRCLE('',#166,10.);
#166 = AXIS2_PLACEMENT_3D('',#167,#168,#169);
#167 = CARTESIAN_POINT('',(0.,0.,0.));
#168 = DIRECTION('',(0.,0.,1.));
#169 = DIRECTION('',(1.,0.,-0.));
#170 = ORIENTED_EDGE('',*,*,#171,.T.);
#171 = EDGE_CURVE('',#163,#172,#174,.T.);
#172 = VERTEX_POINT('',#173);
#173 = CARTESIAN_POINT('',(6.,-6.,20.));
#174 = B_SPLINE_CURVE_WITH_KNOTS('',1,(#175,#176),.UNSPECIFIED.,.F.,.F.,
  (2,2),(0.,1.),.PIECEWISE_BEZIER_KNOTS.);
#175 = CARTESIAN_POINT('',(7.071067811865,-7.071067811865,0.));
#176 = CARTESIAN_POINT('',(6.,-6.,20.));
#177 = ORIENTED_EDGE('',*,*,#178,.F.);
#178 = EDGE_CURVE('',#127,#172,#179,.T.);
#179 = LINE('',#180,#181);
#180 = CARTESIAN_POINT('',(-6.,-6.,20.));
#181 = VECTOR('',#182,1.);
#182 = DIRECTION('',(1.,0.,0.));
#183 = ORIENTED_EDGE('',*,*,#126,.F.);
#184 = B_SPLINE_SURFACE_WITH_KNOTS('',8,1,(
    (#185,#186)
    ,(#187,#188)
    ,(#189,#190)
    ,(#191,#192)
    ,(#193,#194)
    ,(#195,#196)
    ,(#197,#198)
    ,(#199,#200)
    ,(#201,#202
  )),.UNSPECIFIED.,.F.,.F.,.F.,(9,9),(2,2),(0.,12.),(0.,1.),
  .PIECEWISE_BEZIER_KNOTS.);
#185 = CARTESIAN_POINT('',(-7.071067811865,-7.071067811865,0.));
#186 = CARTESIAN_POINT('',(-6.,-6.,20.));
#187 = CARTESIAN_POINT('',(-5.682666893691,-8.45946873004,0.));
#188 = CARTESIAN_POINT('',(-4.5,-6.,20.));
#189 = CARTESIAN_POINT('',(-3.982708711897,-9.536313258656,0.));
#190 = CARTESIAN_POINT('',(-3.,-6.,20.));
#191 = CARTESIAN_POINT('',(-2.052765149906,-10.22003563437,0.));
#192 = CARTESIAN_POINT('',(-1.5,-6.,20.));
#193 = CARTESIAN_POINT('',(-9.769962616701E-14,-10.45469758527,0.));
#194 = CARTESIAN_POINT('',(8.326672684689E-17,-6.,20.));
#195 = CARTESIAN_POINT('',(2.052765149906,-10.22003563437,0.));
#196 = CARTESIAN_POINT('',(1.5,-6.,20.));
#197 = CARTESIAN_POINT('',(3.982708711897,-9.536313258656,0.));
#198 = CARTESIAN_POINT('',(3.,-6.,20.));
#199 = CARTESIAN_POINT('',(5.682666893691,-8.45946873004,0.));
#200 = CARTESIAN_POINT('',(4.5,-6.,20.));
#201 = CARTESIAN_POINT('',(7.071067811865,-7.071067811865,0.));
#202 = CARTESIAN_POINT('',(6.,-6.,20.));
#203 = ADVANCED_FACE('',(#204),#221,.T.);
#204 = FACE_BOUND('',#205,.T.);
#205 = EDGE_LOOP('',(#206,#213,#214,#220));
#206 = ORIENTED_EDGE('',*,*,#207,.T.);
#207 = EDGE_CURVE('',#163,#22,#208,.T.);
#208 = CIRCLE('',#209,10.);
#209 = AXIS2_PLACEMENT_3D('',#210,#211,#212);
#210 = CARTESIAN_POINT('',(0.,0.,0.));
#211 = DIRECTION('',(0.,0.,1.));
#212 = DIRECTION('',(1.,0.,-0.));
#213 = ORIENTED_EDGE('',*,*,#47,.T.);
#214 = ORIENTED_EDGE('',*,*,#215,.F.);
#215 = EDGE_CURVE('',#172,#40,#216,.T.);
#216 = LINE('',#217,#218);
#217 = CARTESIAN_POINT('',(6.,-6.,20.));
#218 = VECTOR('',#219,1.);
#219 = DIRECTION('',(0.,1.,0.));
#220 = ORIENTED_EDGE('',*,*,#171,.F.);
#221 = B_SPLINE_SURFACE_WITH_KNOTS('',7,1,(
    (#222,#223)
    ,(#224,#225)
    ,(#226,#227)
    ,(#228,#229)
    ,(#230,#231)
    ,(#232,#233)
    ,(#234,#235)
    ,(#236,#237)),.UNSPECIFIED.,.F.,.F.,.F.,(8,8),(2,2),(0.,6.),(0.,1.),
  .PIECEWISE_BEZIER_KNOTS.);
#222 = CARTESIAN_POINT('',(7.071067811865,-7.071067811865,0.));
#223 = CARTESIAN_POINT('',(6.,-6.,20.));
#224 = CARTESIAN_POINT('',(7.864439765108,-6.277695858623,0.));
#225 = CARTESIAN_POINT('',(6.,-5.142857142857,20.));
#226 = CARTESIAN_POINT('',(8.553959512946,-5.380471732511,0.));
#227 = CARTESIAN_POINT('',(6.,-4.285714285714,20.));
#228 = CARTESIAN_POINT('',(9.123314439642,-4.395708695875,0.));
#229 = CARTESIAN_POINT('',(6.,-3.428571428571,20.));
#230 = CARTESIAN_POINT('',(9.559392934142,-3.342922080194,0.));
#231 = CARTESIAN_POINT('',(6.,-2.571428571429,20.));
#232 = CARTESIAN_POINT('',(9.853130825641,-2.243994729558,0.));
#233 = CARTESIAN_POINT('',(6.,-1.714285714286,20.));
#234 = CARTESIAN_POINT('',(10.,-1.121997376282,0.));
#235 = CARTESIAN_POINT('',(6.,-0.857142857143,20.));
#236 = CARTESIAN_POINT('',(10.,-1.7763568394E-15,0.));
#237 = CARTESIAN_POINT('',(6.,0.,20.));
#238 = ADVANCED_FACE('',(#239),#246,.F.);
#239 = FACE_BOUND('',#240,.F.);
#240 = EDGE_LOOP('',(#241,#242,#243,#244,#245));
#241 = ORIENTED_EDGE('',*,*,#21,.T.);
#242 = ORIENTED_EDGE('',*,*,#72,.T.);
#243 = ORIENTED_EDGE('',*,*,#117,.T.);
#244 = ORIENTED_EDGE('',*,*,#162,.T.);
#245 = ORIENTED_EDGE('',*,*,#207,.T.);
#246 = PLANE('',#247);
#247 = AXIS2_PLACEMENT_3D('',#248,#249,#250);
#248 = CARTESIAN_POINT('',(0.,0.,0.));
#249 = DIRECTION('',(0.,0.,1.));
#250 = DIRECTION('',(1.,0.,-0.));
#251 = ADVANCED_FACE('',(#252),#259,.T.);
#252 = FACE_BOUND('',#253,.T.);
#253 = EDGE_LOOP('',(#254,#255,#256,#257,#258));
#254 = ORIENTED_EDGE('',*,*,#39,.T.);
#255 = ORIENTED_EDGE('',*,*,#88,.T.);
#256 = ORIENTED_EDGE('',*,*,#133,.T.);
#257 = ORIENTED_EDGE('',*,*,#178,.T.);
#258 = ORIENTED_EDGE('',*,*,#215,.T.);
#259 = PLANE('',#260);
#260 = AXIS2_PLACEMENT_3D('',#261,#262,#263);
#261 = CARTESIAN_POINT('',(6.,0.,20.));
#262 = DIRECTION('',(0.,0.,1.));
#263 = DIRECTION('',(-0.894427191,0.4472135955,0.));
#264 = ( GEOMETRIC_REPRESENTATION_CONTEXT(3) 
GLOBAL_UNCERTAINTY_ASSIGNED_CONTEXT((#268)) GLOBAL_UNIT_ASSIGNED_CONTEXT
((#265,#266,#267)) REPRESENTATION_CONTEXT('Context #1',
  '3D Context with UNIT and UNCERTAINTY') );
#265 = ( LENGTH_UNIT() NAMED_UNIT(*) SI_UNIT(.MILLI.,.METRE.) );
#266 = ( NAMED_UNIT(*) PLANE_ANGLE_UNIT() SI_UNIT($,.RADIAN.) );
#267 = ( NAMED_UNIT(*) SI_UNIT($,.STERADIAN.) SOLID_ANGLE_UNIT() );
#268 = UNCERTAINTY_MEASURE_WITH_UNIT(LENGTH_MEASURE(1.E-07),#265,
  'distance_accuracy_value','confusion accuracy');
#269 = PRODUCT_RELATED_PRODUCT_CATEGORY('part',$,(#7));
ENDSEC;
END-ISO-10303-21;
