ISO-10303-21;
HEADER;
FILE_DESCRIPTION(('FreeCAD Model'),'2;1');
FILE_NAME('Open CASCADE Shape Model','2026-09-28T16:07:15',('FreeCAD'),(
    'FreeCAD'),'Open CASCADE STEP processor 7.9','FreeCAD','Unknown');
FILE_SCHEMA(('AUTOMOTIVE_DESIGN { 1 0 10303 214 1 1 1 1 }'));
ENDSEC;
DATA;
#1 = APPLICATION_PROTOCOL_DEFINITION('international standard',
  'automotive_design',2000,#2);
#2 = APPLICATION_CONTEXT(
  'core data for automotive mechanical design processes');
#3 = SHAPE_DEFINITION_REPRESENTATION(#4,#10);
#4 = PRODUCT_DEFINITION_SHAPE('','',#5);
#5 = PRODUCT_DEFINITION('design','',#6,#9);
#6 = PRODUCT_DEFINITION_FORMATION('','',#7);
#7 = PRODUCT('Open CASCADE STEP translator 7.9 3',
  'Open CASCADE STEP translator 7.9 3','',(#8));
#8 = PRODUCT_CONTEXT('',#2,'mechanical');
#9 = PRODUCT_DEFINITION_CONTEXT('part definition',#2,'design');
#10 = ADVANCED_BREP_SHAPE_REPRESENTATION('',(#11,#15),#367);
#11 = AXIS2_PLACEMENT_3D('',#12,#13,#14);
#12 = CARTESIAN_POINT('',(0.,0.,0.));
#13 = DIRECTION('',(0.,0.,1.));
#14 = DIRECTION('',(1.,0.,-0.));
#15 = MANIFOLD_SOLID_BREP('',#16);
#16 = CLOSED_SHELL('',(#17,#280,#306,#315,#324,#349,#358));
#17 = ADVANCED_FACE('',(#18,#166),#275,.T.);
#18 = FACE_BOUND('',#19,.T.);
#19 = EDGE_LOOP('',(#20,#30,#37,#38,#95,#103,#110,#111));
#20 = ORIENTED_EDGE('',*,*,#21,.T.);
#21 = EDGE_CURVE('',#22,#24,#26,.T.);
#22 = VERTEX_POINT('',#23);
#23 = CARTESIAN_POINT('',(8.,-3.673940397442E-16,5.));
#24 = VERTEX_POINT('',#25);
#25 = CARTESIAN_POINT('',(8.,-1.959434878636E-15,20.));
#26 = LINE('',#27,#28);
#27 = CARTESIAN_POINT('',(8.,-1.959434878636E-15,-20.));
#28 = VECTOR('',#29,1.);
#29 = DIRECTION('',(0.,0.,1.));
#30 = ORIENTED_EDGE('',*,*,#31,.F.);
#31 = EDGE_CURVE('',#24,#24,#32,.T.);
#32 = CIRCLE('',#33,8.);
#33 = AXIS2_PLACEMENT_3D('',#34,#35,#36);
#34 = CARTESIAN_POINT('',(0.,0.,20.));
#35 = DIRECTION('',(0.,0.,1.));
#36 = DIRECTION('',(1.,0.,-0.));
#37 = ORIENTED_EDGE('',*,*,#21,.F.);
#38 = ORIENTED_EDGE('',*,*,#39,.F.);
#39 = EDGE_CURVE('',#40,#22,#42,.T.);
#40 = VERTEX_POINT('',#41);
#41 = CARTESIAN_POINT('',(8.,-1.959434878636E-15,-5.));
#42 = B_SPLINE_CURVE_WITH_KNOTS('',6,(#43,#44,#45,#46,#47,#48,#49,#50,
    #51,#52,#53,#54,#55,#56,#57,#58,#59,#60,#61,#62,#63,#64,#65,#66,#67,
    #68,#69,#70,#71,#72,#73,#74,#75,#76,#77,#78,#79,#80,#81,#82,#83,#84,
    #85,#86,#87,#88,#89,#90,#91,#92,#93,#94),.UNSPECIFIED.,.F.,.F.,(7,5,
    5,5,5,5,5,5,5,5,7),(0.,0.106316964055,0.157817452518,0.295574656436,
    0.399180875489,0.499902762515,0.600335207179,0.703346567293,
    0.843995489392,0.933527957921,1.),.UNSPECIFIED.);
#43 = CARTESIAN_POINT('',(8.,-3.061616997868E-16,-5.));
#44 = CARTESIAN_POINT('',(8.,0.35063500768,-5.));
#45 = CARTESIAN_POINT('',(7.981557809491,0.698158779122,-4.970492870702)
  );
#46 = CARTESIAN_POINT('',(7.945290126661,1.03743105277,-4.912462729087)
  );
#47 = CARTESIAN_POINT('',(7.893274913104,1.363469636389,-4.828447442538)
  );
#48 = CARTESIAN_POINT('',(7.828965794854,1.671691608966,-4.722535085268)
  );
#49 = CARTESIAN_POINT('',(7.721640777809,2.096840171832,-4.541585239218)
  );
#50 = CARTESIAN_POINT('',(7.684562257707,2.231172184327,-4.478481429083)
  );
#51 = CARTESIAN_POINT('',(7.645736950378,2.361115216374,-4.411678998184)
  );
#52 = CARTESIAN_POINT('',(7.605455465954,2.486701905053,-4.341502583499)
  );
#53 = CARTESIAN_POINT('',(7.563989451981,2.607979540122,-4.268246213342)
  );
#54 = CARTESIAN_POINT('',(7.408178503086,3.038050004173,-3.988690510634)
  );
#55 = CARTESIAN_POINT('',(7.287951269199,3.321083907113,-3.764809652062)
  );
#56 = CARTESIAN_POINT('',(7.165433258063,3.575862777145,-3.525016363786)
  );
#57 = CARTESIAN_POINT('',(7.044095331637,3.804318204825,-3.27204004691)
  );
#58 = CARTESIAN_POINT('',(6.92675565057,4.008077394255,-3.007305246144)
  );
#59 = CARTESIAN_POINT('',(6.732985902808,4.323441282047,-2.523740675355)
  );
#60 = CARTESIAN_POINT('',(6.653633697447,4.445355461,-2.309821952822));
#61 = CARTESIAN_POINT('',(6.579469620318,4.55389194327,-2.090265687452)
  );
#62 = CARTESIAN_POINT('',(6.511791024798,4.649084314029,-1.865643428459)
  );
#63 = CARTESIAN_POINT('',(6.451815349794,4.730893910452,-1.636406168448)
  );
#64 = CARTESIAN_POINT('',(6.350881290711,4.865509810331,-1.175902757659)
  );
#65 = CARTESIAN_POINT('',(6.309426584908,4.919078006085,-0.944809253922)
  );
#66 = CARTESIAN_POINT('',(6.277456771331,4.959459051824,-0.710728878448)
  );
#67 = CARTESIAN_POINT('',(6.255830942561,4.986469643929,-0.474638928878)
  );
#68 = CARTESIAN_POINT('',(6.244997998398,5.,-0.237438083731));
#69 = CARTESIAN_POINT('',(6.244997998398,5.,0.236755762921));
#70 = CARTESIAN_POINT('',(6.255768772424,4.98654729469,0.47327739798));
#71 = CARTESIAN_POINT('',(6.277270897084,4.95969120765,0.708697620428));
#72 = CARTESIAN_POINT('',(6.309060463704,4.91954045078,0.94212451247));
#73 = CARTESIAN_POINT('',(6.350287712939,4.866276735065,1.172588570242)
  );
#74 = CARTESIAN_POINT('',(6.450543168116,4.732615557303,1.63121303275));
#75 = CARTESIAN_POINT('',(6.510015094804,4.65153803494,1.859225995863));
#76 = CARTESIAN_POINT('',(6.577122438561,4.557227214389,2.082686174433)
  );
#77 = CARTESIAN_POINT('',(6.65066920844,4.44972344366,2.301148313743));
#78 = CARTESIAN_POINT('',(6.729380060878,4.328997297764,2.514049721246)
  );
#79 = CARTESIAN_POINT('',(6.924604302233,4.011986950125,3.00284072614));
#80 = CARTESIAN_POINT('',(7.044398826452,3.804250831679,3.273263151425)
  );
#81 = CARTESIAN_POINT('',(7.168376705439,3.570789620641,3.531453489513)
  );
#82 = CARTESIAN_POINT('',(7.293548576998,3.309861351382,3.775900074527)
  );
#83 = CARTESIAN_POINT('',(7.416206235118,3.019397632214,4.003667943985)
  );
#84 = CARTESIAN_POINT('',(7.60486511492,2.492666683421,4.34117758485));
#85 = CARTESIAN_POINT('',(7.675468684334,2.274474128182,4.464109922651)
  );
#86 = CARTESIAN_POINT('',(7.74178409456,2.042978891739,4.576944743966));
#87 = CARTESIAN_POINT('',(7.802181545955,1.7983345773,4.677838858304));
#88 = CARTESIAN_POINT('',(7.854953853143,1.540881801852,4.764812919355)
  );
#89 = CARTESIAN_POINT('',(7.930584156923,1.070964247773,4.888342974685)
  );
#90 = CARTESIAN_POINT('',(7.957643075874,0.864011798134,4.932109607875)
  );
#91 = CARTESIAN_POINT('',(7.97862046586,0.651841587381,4.965792720395));
#92 = CARTESIAN_POINT('',(7.992857771292,0.43603293344,4.988572440664));
#93 = CARTESIAN_POINT('',(8.,0.218207964402,5.));
#94 = CARTESIAN_POINT('',(8.,6.123233995737E-16,5.));
#95 = ORIENTED_EDGE('',*,*,#96,.F.);
#96 = EDGE_CURVE('',#97,#40,#99,.T.);
#97 = VERTEX_POINT('',#98);
#98 = CARTESIAN_POINT('',(8.,-1.959434878636E-15,-20.));
#99 = LINE('',#100,#101);
#100 = CARTESIAN_POINT('',(8.,-1.959434878636E-15,-20.));
#101 = VECTOR('',#102,1.);
#102 = DIRECTION('',(0.,0.,1.));
#103 = ORIENTED_EDGE('',*,*,#104,.T.);
#104 = EDGE_CURVE('',#97,#97,#105,.T.);
#105 = CIRCLE('',#106,8.);
#106 = AXIS2_PLACEMENT_3D('',#107,#108,#109);
#107 = CARTESIAN_POINT('',(0.,0.,-20.));
#108 = DIRECTION('',(0.,0.,1.));
#109 = DIRECTION('',(1.,0.,-0.));
#110 = ORIENTED_EDGE('',*,*,#96,.T.);
#111 = ORIENTED_EDGE('',*,*,#112,.F.);
#112 = EDGE_CURVE('',#22,#40,#113,.T.);
#113 = B_SPLINE_CURVE_WITH_KNOTS('',6,(#114,#115,#116,#117,#118,#119,
    #120,#121,#122,#123,#124,#125,#126,#127,#128,#129,#130,#131,#132,
    #133,#134,#135,#136,#137,#138,#139,#140,#141,#142,#143,#144,#145,
    #146,#147,#148,#149,#150,#151,#152,#153,#154,#155,#156,#157,#158,
    #159,#160,#161,#162,#163,#164,#165),.UNSPECIFIED.,.F.,.F.,(7,5,5,5,5
    ,5,5,5,5,5,7),(0.,0.106316964036,0.157817452495,0.295574656416,
    0.399180875472,0.499902762501,0.600335207168,0.703346567285,
    0.843995489388,0.933527957919,1.),.UNSPECIFIED.);
#114 = CARTESIAN_POINT('',(8.,0.,5.));
#115 = CARTESIAN_POINT('',(8.,-0.35063500768,5.));
#116 = CARTESIAN_POINT('',(7.981557809491,-0.698158779123,4.970492870701
    ));
#117 = CARTESIAN_POINT('',(7.945290126661,-1.037431052769,4.912462729088
    ));
#118 = CARTESIAN_POINT('',(7.893274913104,-1.363469636389,4.828447442537
    ));
#119 = CARTESIAN_POINT('',(7.828965794854,-1.671691608966,4.722535085268
    ));
#120 = CARTESIAN_POINT('',(7.721640777805,-2.096840171847,4.541585239212
    ));
#121 = CARTESIAN_POINT('',(7.684562257707,-2.231172184323,4.478481429084
    ));
#122 = CARTESIAN_POINT('',(7.645736950382,-2.361115216361,4.411678998191
    ));
#123 = CARTESIAN_POINT('',(7.605455465955,-2.486701905051,4.341502583502
    ));
#124 = CARTESIAN_POINT('',(7.563989451977,-2.607979540134,4.268246213334
    ));
#125 = CARTESIAN_POINT('',(7.408178503086,-3.038050004173,3.988690510635
    ));
#126 = CARTESIAN_POINT('',(7.287951269199,-3.321083907114,3.764809652061
    ));
#127 = CARTESIAN_POINT('',(7.165433258064,-3.575862777144,3.525016363786
    ));
#128 = CARTESIAN_POINT('',(7.044095331637,-3.804318204826,3.27204004691)
  );
#129 = CARTESIAN_POINT('',(6.92675565057,-4.008077394255,3.007305246144)
  );
#130 = CARTESIAN_POINT('',(6.732985902808,-4.323441282047,2.523740675355
    ));
#131 = CARTESIAN_POINT('',(6.653633697447,-4.445355461,2.309821952822));
#132 = CARTESIAN_POINT('',(6.579469620318,-4.55389194327,2.090265687453)
  );
#133 = CARTESIAN_POINT('',(6.511791024798,-4.649084314029,1.865643428459
    ));
#134 = CARTESIAN_POINT('',(6.451815349794,-4.730893910452,1.636406168448
    ));
#135 = CARTESIAN_POINT('',(6.350881290711,-4.865509810331,1.175902757659
    ));
#136 = CARTESIAN_POINT('',(6.309426584908,-4.919078006085,0.944809253922
    ));
#137 = CARTESIAN_POINT('',(6.277456771331,-4.959459051824,0.710728878448
    ));
#138 = CARTESIAN_POINT('',(6.255830942561,-4.986469643929,0.474638928878
    ));
#139 = CARTESIAN_POINT('',(6.244997998398,-5.,0.237438083731));
#140 = CARTESIAN_POINT('',(6.244997998398,-5.,-0.236755762921));
#141 = CARTESIAN_POINT('',(6.255768772423,-4.98654729469,-0.473277397979
    ));
#142 = CARTESIAN_POINT('',(6.277270897085,-4.95969120765,-0.70869762043)
  );
#143 = CARTESIAN_POINT('',(6.309060463704,-4.91954045078,-0.942124512469
    ));
#144 = CARTESIAN_POINT('',(6.350287712939,-4.866276735065,
    -1.172588570242));
#145 = CARTESIAN_POINT('',(6.450543168116,-4.732615557303,-1.63121303275
    ));
#146 = CARTESIAN_POINT('',(6.510015094804,-4.65153803494,-1.859225995863
    ));
#147 = CARTESIAN_POINT('',(6.577122438561,-4.557227214388,
    -2.082686174433));
#148 = CARTESIAN_POINT('',(6.650669208439,-4.44972344366,-2.301148313743
    ));
#149 = CARTESIAN_POINT('',(6.729380060878,-4.328997297764,
    -2.514049721246));
#150 = CARTESIAN_POINT('',(6.924604302233,-4.011986950125,
    -3.002840726139));
#151 = CARTESIAN_POINT('',(7.044398826452,-3.804250831679,
    -3.273263151426));
#152 = CARTESIAN_POINT('',(7.168376705439,-3.570789620641,
    -3.531453489513));
#153 = CARTESIAN_POINT('',(7.293548576998,-3.309861351382,
    -3.775900074527));
#154 = CARTESIAN_POINT('',(7.416206235118,-3.019397632215,
    -4.003667943985));
#155 = CARTESIAN_POINT('',(7.60486511492,-2.492666683421,-4.34117758485)
  );
#156 = CARTESIAN_POINT('',(7.675468684334,-2.274474128182,
    -4.464109922651));
#157 = CARTESIAN_POINT('',(7.74178409456,-2.042978891739,-4.576944743967
    ));
#158 = CARTESIAN_POINT('',(7.802181545955,-1.7983345773,-4.677838858304)
  );
#159 = CARTESIAN_POINT('',(7.854953853143,-1.540881801852,
    -4.764812919355));
#160 = CARTESIAN_POINT('',(7.930584156923,-1.070964247773,
    -4.888342974685));
#161 = CARTESIAN_POINT('',(7.957643075874,-0.864011798134,
    -4.932109607875));
#162 = CARTESIAN_POINT('',(7.97862046586,-0.651841587382,-4.965792720395
    ));
#163 = CARTESIAN_POINT('',(7.992857771292,-0.436032933439,
    -4.988572440664));
#164 = CARTESIAN_POINT('',(8.,-0.218207964402,-5.));
#165 = CARTESIAN_POINT('',(8.,-8.881784197001E-16,-5.));
#166 = FACE_BOUND('',#167,.T.);
#167 = EDGE_LOOP('',(#168));
#168 = ORIENTED_EDGE('',*,*,#169,.T.);
#169 = EDGE_CURVE('',#170,#170,#172,.T.);
#170 = VERTEX_POINT('',#171);
#171 = CARTESIAN_POINT('',(-8.,1.224646799147E-15,5.));
#172 = B_SPLINE_CURVE_WITH_KNOTS('',6,(#173,#174,#175,#176,#177,#178,
    #179,#180,#181,#182,#183,#184,#185,#186,#187,#188,#189,#190,#191,
    #192,#193,#194,#195,#196,#197,#198,#199,#200,#201,#202,#203,#204,
    #205,#206,#207,#208,#209,#210,#211,#212,#213,#214,#215,#216,#217,
    #218,#219,#220,#221,#222,#223,#224,#225,#226,#227,#228,#229,#230,
    #231,#232,#233,#234,#235,#236,#237,#238,#239,#240,#241,#242,#243,
    #244,#245,#246,#247,#248,#249,#250,#251,#252,#253,#254,#255,#256,
    #257,#258,#259,#260,#261,#262,#263,#264,#265,#266,#267,#268,#269,
    #270,#271,#272,#273,#274),.UNSPECIFIED.,.T.,.F.,(7,5,5,5,5,5,5,5,5,5
    ,5,5,5,5,5,5,5,5,5,5,7),(0.,5.325722528233E-02,7.905530125793E-02,
    0.148061847001,0.199961182143,0.25041567241,0.300725172674,
    0.352326525862,0.422781616416,0.467631005118,0.523000837963,
    0.554114657392,0.579809799874,0.648541011724,0.700233270193,
    0.750486448671,0.80059521565,0.851990681104,0.922164658118,
    0.966835099191,1.),.UNSPECIFIED.);
#173 = CARTESIAN_POINT('',(-8.,8.881784197001E-16,5.));
#174 = CARTESIAN_POINT('',(-8.,-0.350635007679,5.));
#175 = CARTESIAN_POINT('',(-7.981557809491,-0.698158779122,
    4.970492870702));
#176 = CARTESIAN_POINT('',(-7.94529012666,-1.03743105277,4.912462729087)
  );
#177 = CARTESIAN_POINT('',(-7.893274913104,-1.363469636389,
    4.828447442538));
#178 = CARTESIAN_POINT('',(-7.828965794854,-1.671691608966,
    4.722535085268));
#179 = CARTESIAN_POINT('',(-7.721640777809,-2.096840171832,
    4.541585239218));
#180 = CARTESIAN_POINT('',(-7.684562257707,-2.231172184327,
    4.478481429083));
#181 = CARTESIAN_POINT('',(-7.645736950378,-2.361115216374,
    4.411678998184));
#182 = CARTESIAN_POINT('',(-7.605455465954,-2.486701905053,
    4.341502583499));
#183 = CARTESIAN_POINT('',(-7.563989451981,-2.607979540122,
    4.268246213342));
#184 = CARTESIAN_POINT('',(-7.408178503086,-3.038050004173,
    3.988690510634));
#185 = CARTESIAN_POINT('',(-7.287951269199,-3.321083907114,
    3.764809652062));
#186 = CARTESIAN_POINT('',(-7.165433258063,-3.575862777144,
    3.525016363785));
#187 = CARTESIAN_POINT('',(-7.044095331637,-3.804318204825,3.27204004691
    ));
#188 = CARTESIAN_POINT('',(-6.92675565057,-4.008077394255,3.007305246143
    ));
#189 = CARTESIAN_POINT('',(-6.732985902808,-4.323441282047,
    2.523740675355));
#190 = CARTESIAN_POINT('',(-6.653633697447,-4.445355461,2.309821952822)
  );
#191 = CARTESIAN_POINT('',(-6.579469620318,-4.55389194327,2.090265687452
    ));
#192 = CARTESIAN_POINT('',(-6.511791024798,-4.649084314029,
    1.865643428459));
#193 = CARTESIAN_POINT('',(-6.451815349794,-4.730893910452,
    1.636406168448));
#194 = CARTESIAN_POINT('',(-6.350881290711,-4.865509810331,
    1.175902757659));
#195 = CARTESIAN_POINT('',(-6.309426584908,-4.919078006085,
    0.944809253922));
#196 = CARTESIAN_POINT('',(-6.277456771331,-4.959459051824,
    0.710728878449));
#197 = CARTESIAN_POINT('',(-6.25583094256,-4.986469643929,0.474638928877
    ));
#198 = CARTESIAN_POINT('',(-6.244997998398,-5.,0.237438083731));
#199 = CARTESIAN_POINT('',(-6.244997998398,-5.,-0.23675576292));
#200 = CARTESIAN_POINT('',(-6.255768772424,-4.98654729469,
    -0.473277397979));
#201 = CARTESIAN_POINT('',(-6.277270897085,-4.95969120765,-0.70869762043
    ));
#202 = CARTESIAN_POINT('',(-6.309060463704,-4.91954045078,
    -0.942124512469));
#203 = CARTESIAN_POINT('',(-6.350287712939,-4.866276735065,
    -1.172588570242));
#204 = CARTESIAN_POINT('',(-6.450543168116,-4.732615557303,
    -1.63121303275));
#205 = CARTESIAN_POINT('',(-6.510015094804,-4.65153803494,
    -1.859225995863));
#206 = CARTESIAN_POINT('',(-6.577122438561,-4.557227214389,
    -2.082686174432));
#207 = CARTESIAN_POINT('',(-6.65066920844,-4.449723443659,
    -2.301148313743));
#208 = CARTESIAN_POINT('',(-6.729380060877,-4.328997297764,
    -2.514049721246));
#209 = CARTESIAN_POINT('',(-6.924604302233,-4.011986950125,
    -3.002840726139));
#210 = CARTESIAN_POINT('',(-7.044398826452,-3.804250831679,
    -3.273263151426));
#211 = CARTESIAN_POINT('',(-7.168376705439,-3.570789620641,
    -3.531453489513));
#212 = CARTESIAN_POINT('',(-7.293548576998,-3.309861351382,
    -3.775900074527));
#213 = CARTESIAN_POINT('',(-7.416206235118,-3.019397632215,
    -4.003667943985));
#214 = CARTESIAN_POINT('',(-7.60486511492,-2.492666683421,-4.34117758485
    ));
#215 = CARTESIAN_POINT('',(-7.675468684334,-2.274474128182,
    -4.464109922651));
#216 = CARTESIAN_POINT('',(-7.74178409456,-2.042978891739,
    -4.576944743966));
#217 = CARTESIAN_POINT('',(-7.802181545955,-1.7983345773,-4.677838858304
    ));
#218 = CARTESIAN_POINT('',(-7.854953853143,-1.540881801852,
    -4.764812919355));
#219 = CARTESIAN_POINT('',(-7.95194536862,-0.938239561355,-4.92323311172
    ));
#220 = CARTESIAN_POINT('',(-7.991446536518,-0.585448772244,
    -4.986563448405));
#221 = CARTESIAN_POINT('',(-8.012248068217,-0.220753675857,
    -5.019431209751));
#222 = CARTESIAN_POINT('',(-8.012029830902,0.14734724502,-5.019211904605
    ));
#223 = CARTESIAN_POINT('',(-7.991444169376,0.510231649282,
    -4.986529110205));
#224 = CARTESIAN_POINT('',(-7.932457718917,1.055990676054,
    -4.891278912129));
#225 = CARTESIAN_POINT('',(-7.905841779882,1.247805710451,
    -4.848123403969));
#226 = CARTESIAN_POINT('',(-7.874336729376,1.434467802949,
    -4.796723853584));
#227 = CARTESIAN_POINT('',(-7.838530039393,1.615406689763,
    -4.737795737608));
#228 = CARTESIAN_POINT('',(-7.799073247053,1.790105508056,
    -4.672136286631));
#229 = CARTESIAN_POINT('',(-7.721640777805,2.096840171847,
    -4.541585239212));
#230 = CARTESIAN_POINT('',(-7.684562257707,2.231172184323,
    -4.478481429084));
#231 = CARTESIAN_POINT('',(-7.645736950382,2.361115216361,
    -4.411678998191));
#232 = CARTESIAN_POINT('',(-7.605455465955,2.486701905051,
    -4.341502583502));
#233 = CARTESIAN_POINT('',(-7.563989451977,2.607979540134,
    -4.268246213334));
#234 = CARTESIAN_POINT('',(-7.408178503086,3.038050004173,
    -3.988690510634));
#235 = CARTESIAN_POINT('',(-7.287951269199,3.321083907114,
    -3.764809652061));
#236 = CARTESIAN_POINT('',(-7.165433258063,3.575862777144,
    -3.525016363786));
#237 = CARTESIAN_POINT('',(-7.044095331637,3.804318204825,-3.27204004691
    ));
#238 = CARTESIAN_POINT('',(-6.92675565057,4.008077394255,-3.007305246144
    ));
#239 = CARTESIAN_POINT('',(-6.732985902808,4.323441282047,
    -2.523740675356));
#240 = CARTESIAN_POINT('',(-6.653633697447,4.445355461001,
    -2.309821952821));
#241 = CARTESIAN_POINT('',(-6.579469620318,4.55389194327,-2.090265687453
    ));
#242 = CARTESIAN_POINT('',(-6.511791024798,4.649084314029,
    -1.865643428459));
#243 = CARTESIAN_POINT('',(-6.451815349794,4.730893910452,
    -1.636406168448));
#244 = CARTESIAN_POINT('',(-6.350881290711,4.865509810331,
    -1.175902757659));
#245 = CARTESIAN_POINT('',(-6.309426584908,4.919078006086,
    -0.944809253921));
#246 = CARTESIAN_POINT('',(-6.277456771331,4.959459051824,
    -0.710728878449));
#247 = CARTESIAN_POINT('',(-6.255830942561,4.98646964393,-0.474638928877
    ));
#248 = CARTESIAN_POINT('',(-6.244997998398,5.,-0.237438083732));
#249 = CARTESIAN_POINT('',(-6.244997998398,5.,0.236755762921));
#250 = CARTESIAN_POINT('',(-6.255768772424,4.98654729469,0.473277397978)
  );
#251 = CARTESIAN_POINT('',(-6.277270897085,4.95969120765,0.70869762043)
  );
#252 = CARTESIAN_POINT('',(-6.309060463704,4.91954045078,0.942124512469)
  );
#253 = CARTESIAN_POINT('',(-6.350287712939,4.866276735065,1.172588570242
    ));
#254 = CARTESIAN_POINT('',(-6.450543168115,4.732615557304,1.63121303275)
  );
#255 = CARTESIAN_POINT('',(-6.510015094804,4.65153803494,1.859225995863)
  );
#256 = CARTESIAN_POINT('',(-6.577122438561,4.557227214388,2.082686174433
    ));
#257 = CARTESIAN_POINT('',(-6.65066920844,4.44972344366,2.301148313743)
  );
#258 = CARTESIAN_POINT('',(-6.729380060877,4.328997297764,2.514049721246
    ));
#259 = CARTESIAN_POINT('',(-6.924604302233,4.011986950125,3.002840726139
    ));
#260 = CARTESIAN_POINT('',(-7.044398826452,3.804250831679,3.273263151425
    ));
#261 = CARTESIAN_POINT('',(-7.168376705439,3.570789620641,3.531453489514
    ));
#262 = CARTESIAN_POINT('',(-7.293548576998,3.309861351382,3.775900074527
    ));
#263 = CARTESIAN_POINT('',(-7.416206235118,3.019397632215,4.003667943985
    ));
#264 = CARTESIAN_POINT('',(-7.604865114898,2.492666683481,4.341177584811
    ));
#265 = CARTESIAN_POINT('',(-7.675468684347,2.27447412816,4.464109922675)
  );
#266 = CARTESIAN_POINT('',(-7.741784094577,2.042978891671,4.576944743996
    ));
#267 = CARTESIAN_POINT('',(-7.802181545951,1.798334577287,4.677838858296
    ));
#268 = CARTESIAN_POINT('',(-7.85495385313,1.54088180193,4.764812919335)
  );
#269 = CARTESIAN_POINT('',(-7.930584156923,1.070964247773,4.888342974685
    ));
#270 = CARTESIAN_POINT('',(-7.957643075874,0.864011798134,4.932109607875
    ));
#271 = CARTESIAN_POINT('',(-7.97862046586,0.651841587381,4.965792720395)
  );
#272 = CARTESIAN_POINT('',(-7.992857771292,0.436032933439,4.988572440664
    ));
#273 = CARTESIAN_POINT('',(-8.,0.218207964402,5.));
#274 = CARTESIAN_POINT('',(-8.,8.881784197001E-16,5.));
#275 = CYLINDRICAL_SURFACE('',#276,8.);
#276 = AXIS2_PLACEMENT_3D('',#277,#278,#279);
#277 = CARTESIAN_POINT('',(0.,0.,-20.));
#278 = DIRECTION('',(0.,0.,1.));
#279 = DIRECTION('',(1.,0.,-0.));
#280 = ADVANCED_FACE('',(#281),#301,.T.);
#281 = FACE_BOUND('',#282,.T.);
#282 = EDGE_LOOP('',(#283,#291,#298,#299,#300));
#283 = ORIENTED_EDGE('',*,*,#284,.T.);
#284 = EDGE_CURVE('',#22,#285,#287,.T.);
#285 = VERTEX_POINT('',#286);
#286 = CARTESIAN_POINT('',(20.,1.224646799147E-15,5.));
#287 = LINE('',#288,#289);
#288 = CARTESIAN_POINT('',(-20.,1.224646799147E-15,5.));
#289 = VECTOR('',#290,1.);
#290 = DIRECTION('',(1.,0.,0.));
#291 = ORIENTED_EDGE('',*,*,#292,.F.);
#292 = EDGE_CURVE('',#285,#285,#293,.T.);
#293 = CIRCLE('',#294,5.);
#294 = AXIS2_PLACEMENT_3D('',#295,#296,#297);
#295 = CARTESIAN_POINT('',(20.,0.,0.));
#296 = DIRECTION('',(1.,0.,0.));
#297 = DIRECTION('',(-0.,0.,1.));
#298 = ORIENTED_EDGE('',*,*,#284,.F.);
#299 = ORIENTED_EDGE('',*,*,#112,.T.);
#300 = ORIENTED_EDGE('',*,*,#39,.T.);
#301 = CYLINDRICAL_SURFACE('',#302,5.);
#302 = AXIS2_PLACEMENT_3D('',#303,#304,#305);
#303 = CARTESIAN_POINT('',(-20.,0.,0.));
#304 = DIRECTION('',(1.,0.,0.));
#305 = DIRECTION('',(-0.,0.,1.));
#306 = ADVANCED_FACE('',(#307),#310,.F.);
#307 = FACE_BOUND('',#308,.T.);
#308 = EDGE_LOOP('',(#309));
#309 = ORIENTED_EDGE('',*,*,#104,.F.);
#310 = PLANE('',#311);
#311 = AXIS2_PLACEMENT_3D('',#312,#313,#314);
#312 = CARTESIAN_POINT('',(0.,0.,-20.));
#313 = DIRECTION('',(0.,0.,1.));
#314 = DIRECTION('',(1.,0.,-0.));
#315 = ADVANCED_FACE('',(#316),#319,.T.);
#316 = FACE_BOUND('',#317,.T.);
#317 = EDGE_LOOP('',(#318));
#318 = ORIENTED_EDGE('',*,*,#31,.T.);
#319 = PLANE('',#320);
#320 = AXIS2_PLACEMENT_3D('',#321,#322,#323);
#321 = CARTESIAN_POINT('',(0.,0.,20.));
#322 = DIRECTION('',(0.,0.,1.));
#323 = DIRECTION('',(1.,0.,-0.));
#324 = ADVANCED_FACE('',(#325),#344,.T.);
#325 = FACE_BOUND('',#326,.T.);
#326 = EDGE_LOOP('',(#327,#328,#336,#343));
#327 = ORIENTED_EDGE('',*,*,#169,.F.);
#328 = ORIENTED_EDGE('',*,*,#329,.F.);
#329 = EDGE_CURVE('',#330,#170,#332,.T.);
#330 = VERTEX_POINT('',#331);
#331 = CARTESIAN_POINT('',(-20.,1.224646799147E-15,5.));
#332 = LINE('',#333,#334);
#333 = CARTESIAN_POINT('',(-20.,1.224646799147E-15,5.));
#334 = VECTOR('',#335,1.);
#335 = DIRECTION('',(1.,0.,0.));
#336 = ORIENTED_EDGE('',*,*,#337,.T.);
#337 = EDGE_CURVE('',#330,#330,#338,.T.);
#338 = CIRCLE('',#339,5.);
#339 = AXIS2_PLACEMENT_3D('',#340,#341,#342);
#340 = CARTESIAN_POINT('',(-20.,0.,0.));
#341 = DIRECTION('',(1.,0.,0.));
#342 = DIRECTION('',(-0.,0.,1.));
#343 = ORIENTED_EDGE('',*,*,#329,.T.);
#344 = CYLINDRICAL_SURFACE('',#345,5.);
#345 = AXIS2_PLACEMENT_3D('',#346,#347,#348);
#346 = CARTESIAN_POINT('',(-20.,0.,0.));
#347 = DIRECTION('',(1.,0.,0.));
#348 = DIRECTION('',(-0.,0.,1.));
#349 = ADVANCED_FACE('',(#350),#353,.T.);
#350 = FACE_BOUND('',#351,.T.);
#351 = EDGE_LOOP('',(#352));
#352 = ORIENTED_EDGE('',*,*,#292,.T.);
#353 = PLANE('',#354);
#354 = AXIS2_PLACEMENT_3D('',#355,#356,#357);
#355 = CARTESIAN_POINT('',(20.,0.,0.));
#356 = DIRECTION('',(1.,0.,0.));
#357 = DIRECTION('',(-0.,0.,1.));
#358 = ADVANCED_FACE('',(#359),#362,.F.);
#359 = FACE_BOUND('',#360,.T.);
#360 = EDGE_LOOP('',(#361));
#361 = ORIENTED_EDGE('',*,*,#337,.F.);
#362 = PLANE('',#363);
#363 = AXIS2_PLACEMENT_3D('',#364,#365,#366);
#364 = CARTESIAN_POINT('',(-20.,0.,0.));
#365 = DIRECTION('',(1.,0.,0.));
#366 = DIRECTION('',(-0.,0.,1.));
#367 = ( GEOMETRIC_REPRESENTATION_CONTEXT(3) 
GLOBAL_UNCERTAINTY_ASSIGNED_CONTEXT((#371)) GLOBAL_UNIT_ASSIGNED_CONTEXT
((#368,#369,#370)) REPRESENTATION_CONTEXT('Context #1',
  '3D Context with UNIT and UNCERTAINTY') );
#368 = ( LENGTH_UNIT() NAMED_UNIT(*) SI_UNIT(.MILLI.,.METRE.) );
#369 = ( NAMED_UNIT(*) PLANE_ANGLE_UNIT() SI_UNIT($,.RADIAN.) );
#370 = ( NAMED_UNIT(*) SI_UNIT($,.STERADIAN.) SOLID_ANGLE_UNIT() );
#371 = UNCERTAINTY_MEASURE_WITH_UNIT(LENGTH_MEASURE(1.E-07),#368,
  'distance_accuracy_value','confusion accuracy');
#372 = PRODUCT_RELATED_PRODUCT_CATEGORY('part',$,(#7));
ENDSEC;
END-ISO-10303-21;
